<?xml version="1.0" encoding="UTF-8" standalone="no"?><!DOCTYPE svg PUBLIC "-//W3C//DTD SVG 1.1//EN" "http://www.w3.org/Graphics/SVG/1.1/DTD/svg11.dtd"><svg width="100%" height="100%" viewBox="0 0 2500 1024" version="1.1" xmlns="http://www.w3.org/2000/svg" xmlns:xlink="http://www.w3.org/1999/xlink" xml:space="preserve" xmlns:serif="http://www.serif.com/" style="fill-rule:evenodd;clip-rule:evenodd;stroke-linejoin:round;stroke-miterlimit:2;"><g><g><path d="M596.875,55.298c0,-8.624 -7.001,-15.625 -15.625,-15.625l-131.25,-0c-8.624,-0 -15.625,7.001 -15.625,15.625l0,131.25c0,8.624 7.001,15.625 15.625,15.625l131.25,-0c8.624,-0 15.625,-7.001 15.625,-15.625l0,-131.25Z" style="fill:#ccc;"/><path d="M596.875,55.298c0,-8.624 -7.001,-15.625 -15.625,-15.625l-131.25,-0c-8.624,-0 -15.625,7.001 -15.625,15.625l0,131.25c0,8.624 7.001,15.625 15.625,15.625l131.25,-0c8.624,-0 15.625,-7.001 15.625,-15.625l0,-131.25Z" style="fill:#ccc;"/><path d="M578.125,64.673c0,-8.624 -7.001,-15.625 -15.625,-15.625l-93.75,-0c-8.624,-0 -15.625,7.001 -15.625,15.625l0,93.75c0,8.624 7.001,15.625 15.625,15.625l93.75,-0c8.624,-0 15.625,-7.001 15.625,-15.625l0,-93.75Z" style="fill:#fcfcfc;"/><path d="M578.125,64.673c0,-8.624 -7.001,-15.625 -15.625,-15.625l-93.75,-0c-8.624,-0 -15.625,7.001 -15.625,15.625l0,93.75c0,8.624 7.001,15.625 15.625,15.625l93.75,-0c8.624,-0 15.625,-7.001 15.625,-15.625l0,-93.75Z" style="fill:#fcfcfc;"/></g><g><path d="M2065.62,55.298c0,-8.624 -7.001,-15.625 -15.625,-15.625l-131.25,-0c-8.624,-0 -15.625,7.001 -15.625,15.625l0,131.25c0,8.624 7.001,15.625 15.625,15.625l131.25,-0c8.624,-0 15.625,-7.001 15.625,-15.625l0,-131.25Z" style="fill:#ccc;"/><path d="M2065.62,55.298c0,-8.624 -7.001,-15.625 -15.625,-15.625l-131.25,-0c-8.624,-0 -15.625,7.001 -15.625,15.625l0,131.25c0,8.624 7.001,15.625 15.625,15.625l131.25,-0c8.624,-0 15.625,-7.001 15.625,-15.625l0,-131.25Z" style="fill:#ccc;"/><path d="M2046.88,64.673c0,-8.624 -7.001,-15.625 -15.625,-15.625l-93.75,-0c-8.624,-0 -15.625,7.001 -15.625,15.625l0,93.75c0,8.624 7.001,15.625 15.625,15.625l93.75,-0c8.624,-0 15.625,-7.001 15.625,-15.625l0,-93.75Z" style="fill:#fcfcfc;"/><path d="M2046.88,64.673c0,-8.624 -7.001,-15.625 -15.625,-15.625l-93.75,-0c-8.624,-0 -15.625,7.001 -15.625,15.625l0,93.75c0,8.624 7.001,15.625 15.625,15.625l93.75,-0c8.624,-0 15.625,-7.001 15.625,-15.625l0,-93.75Z" style="fill:#fcfcfc;"/></g><g><path d="M428.125,97.485c0,-8.623 -7.001,-15.625 -15.625,-15.625l-131.25,0c-8.624,0 -15.625,7.002 -15.625,15.625l0,131.25c0,8.624 7.001,15.625 15.625,15.625l131.25,0c8.624,0 15.625,-7.001 15.625,-15.625l0,-131.25Z" style="fill:#ccc;"/><path d="M428.125,97.485c0,-8.623 -7.001,-15.625 -15.625,-15.625l-131.25,0c-8.624,0 -15.625,7.002 -15.625,15.625l0,131.25c0,8.624 7.001,15.625 15.625,15.625l131.25,0c8.624,0 15.625,-7.001 15.625,-15.625l0,-131.25Z" style="fill:#ccc;"/><path d="M409.375,106.86c0,-8.623 -7.001,-15.625 -15.625,-15.625l-93.75,0c-8.624,0 -15.625,7.002 -15.625,15.625l0,93.75c0,8.624 7.001,15.625 15.625,15.625l93.75,0c8.624,0 15.625,-7.001 15.625,-15.625l0,-93.75Z" style="fill:#fcfcfc;"/><path d="M409.375,106.86c0,-8.623 -7.001,-15.625 -15.625,-15.625l-93.75,0c-8.624,0 -15.625,7.002 -15.625,15.625l0,93.75c0,8.624 7.001,15.625 15.625,15.625l93.75,0c8.624,0 15.625,-7.001 15.625,-15.625l0,-93.75Z" style="fill:#fcfcfc;"/></g><g><path d="M765.625,97.485c0,-8.623 -7.001,-15.625 -15.625,-15.625l-131.25,0c-8.624,0 -15.625,7.002 -15.625,15.625l0,131.25c0,8.624 7.001,15.625 15.625,15.625l131.25,0c8.624,0 15.625,-7.001 15.625,-15.625l0,-131.25Z" style="fill:#ccc;"/><path d="M765.625,97.485c0,-8.623 -7.001,-15.625 -15.625,-15.625l-131.25,0c-8.624,0 -15.625,7.002 -15.625,15.625l0,131.25c0,8.624 7.001,15.625 15.625,15.625l131.25,0c8.624,0 15.625,-7.001 15.625,-15.625l0,-131.25Z" style="fill:#ccc;"/><path d="M746.875,106.86c0,-8.623 -7.001,-15.625 -15.625,-15.625l-93.75,0c-8.624,0 -15.625,7.002 -15.625,15.625l0,93.75c0,8.624 7.001,15.625 15.625,15.625l93.75,0c8.624,0 15.625,-7.001 15.625,-15.625l0,-93.75Z" style="fill:#fcfcfc;"/><path d="M746.875,106.86c0,-8.623 -7.001,-15.625 -15.625,-15.625l-93.75,0c-8.624,0 -15.625,7.002 -15.625,15.625l0,93.75c0,8.624 7.001,15.625 15.625,15.625l93.75,0c8.624,0 15.625,-7.001 15.625,-15.625l0,-93.75Z" style="fill:#fcfcfc;"/></g><g><path d="M1896.88,97.485c0,-8.623 -7.001,-15.625 -15.625,-15.625l-131.25,0c-8.624,0 -15.625,7.002 -15.625,15.625l0,131.25c0,8.624 7.001,15.625 15.625,15.625l131.25,0c8.624,0 15.625,-7.001 15.625,-15.625l0,-131.25Z" style="fill:#ccc;"/><path d="M1896.88,97.485c0,-8.623 -7.001,-15.625 -15.625,-15.625l-131.25,0c-8.624,0 -15.625,7.002 -15.625,15.625l0,131.25c0,8.624 7.001,15.625 15.625,15.625l131.25,0c8.624,0 15.625,-7.001 15.625,-15.625l0,-131.25Z" style="fill:#ccc;"/><path d="M1878.12,106.86c0,-8.623 -7.001,-15.625 -15.625,-15.625l-93.75,0c-8.624,0 -15.625,7.002 -15.625,15.625l0,93.75c0,8.624 7.001,15.625 15.625,15.625l93.75,0c8.624,0 15.625,-7.001 15.625,-15.625l0,-93.75Z" style="fill:#fcfcfc;"/><path d="M1878.12,106.86c0,-8.623 -7.001,-15.625 -15.625,-15.625l-93.75,0c-8.624,0 -15.625,7.002 -15.625,15.625l0,93.75c0,8.624 7.001,15.625 15.625,15.625l93.75,0c8.624,0 15.625,-7.001 15.625,-15.625l0,-93.75Z" style="fill:#fcfcfc;"/></g><g><path d="M2234.38,97.485c0,-8.623 -7.001,-15.625 -15.625,-15.625l-131.25,0c-8.624,0 -15.625,7.002 -15.625,15.625l0,131.25c0,8.624 7.001,15.625 15.625,15.625l131.25,0c8.624,0 15.625,-7.001 15.625,-15.625l0,-131.25Z" style="fill:#ccc;"/><path d="M2234.38,97.485c0,-8.623 -7.001,-15.625 -15.625,-15.625l-131.25,0c-8.624,0 -15.625,7.002 -15.625,15.625l0,131.25c0,8.624 7.001,15.625 15.625,15.625l131.25,0c8.624,0 15.625,-7.001 15.625,-15.625l0,-131.25Z" style="fill:#ccc;"/><path d="M2215.62,106.86c0,-8.623 -7.001,-15.625 -15.625,-15.625l-93.75,0c-8.624,0 -15.625,7.002 -15.625,15.625l0,93.75c0,8.624 7.001,15.625 15.625,15.625l93.75,0c8.624,0 15.625,-7.001 15.625,-15.625l0,-93.75Z" style="fill:#fcfcfc;"/><path d="M2215.62,106.86c0,-8.623 -7.001,-15.625 -15.625,-15.625l-93.75,0c-8.624,0 -15.625,7.002 -15.625,15.625l0,93.75c0,8.624 7.001,15.625 15.625,15.625l93.75,0c8.624,0 15.625,-7.001 15.625,-15.625l0,-93.75Z" style="fill:#fcfcfc;"/></g><g><path d="M934.375,118.579c0,-8.624 -7.001,-15.625 -15.625,-15.625l-131.25,0c-8.624,0 -15.625,7.001 -15.625,15.625l0,131.25c0,8.624 7.001,15.625 15.625,15.625l131.25,0c8.624,0 15.625,-7.001 15.625,-15.625l0,-131.25Z" style="fill:#ccc;"/><path d="M934.375,118.579c0,-8.624 -7.001,-15.625 -15.625,-15.625l-131.25,0c-8.624,0 -15.625,7.001 -15.625,15.625l0,131.25c0,8.624 7.001,15.625 15.625,15.625l131.25,0c8.624,0 15.625,-7.001 15.625,-15.625l0,-131.25Z" style="fill:#ccc;"/><path d="M915.625,127.954c0,-8.624 -7.001,-15.625 -15.625,-15.625l-93.75,0c-8.624,0 -15.625,7.001 -15.625,15.625l0,93.75c0,8.624 7.001,15.625 15.625,15.625l93.75,0c8.624,0 15.625,-7.001 15.625,-15.625l0,-93.75Z" style="fill:#fcfcfc;"/><path d="M915.625,127.954c0,-8.624 -7.001,-15.625 -15.625,-15.625l-93.75,0c-8.624,0 -15.625,7.001 -15.625,15.625l0,93.75c0,8.624 7.001,15.625 15.625,15.625l93.75,0c8.624,0 15.625,-7.001 15.625,-15.625l0,-93.75Z" style="fill:#fcfcfc;"/></g><g><path d="M1728.12,118.579c0,-8.624 -7.001,-15.625 -15.625,-15.625l-131.25,0c-8.624,0 -15.625,7.001 -15.625,15.625l0,131.25c0,8.624 7.001,15.625 15.625,15.625l131.25,0c8.624,0 15.625,-7.001 15.625,-15.625l0,-131.25Z" style="fill:#ccc;"/><path d="M1728.12,118.579c0,-8.624 -7.001,-15.625 -15.625,-15.625l-131.25,0c-8.624,0 -15.625,7.001 -15.625,15.625l0,131.25c0,8.624 7.001,15.625 15.625,15.625l131.25,0c8.624,0 15.625,-7.001 15.625,-15.625l0,-131.25Z" style="fill:#ccc;"/><path d="M1709.38,127.954c0,-8.624 -7.001,-15.625 -15.625,-15.625l-93.75,0c-8.624,0 -15.625,7.001 -15.625,15.625l0,93.75c0,8.624 7.001,15.625 15.625,15.625l93.75,0c8.624,0 15.625,-7.001 15.625,-15.625l0,-93.75Z" style="fill:#fcfcfc;"/><path d="M1709.38,127.954c0,-8.624 -7.001,-15.625 -15.625,-15.625l-93.75,0c-8.624,0 -15.625,7.001 -15.625,15.625l0,93.75c0,8.624 7.001,15.625 15.625,15.625l93.75,0c8.624,0 15.625,-7.001 15.625,-15.625l0,-93.75Z" style="fill:#fcfcfc;"/></g><g><path d="M259.375,181.86c0,-8.623 -7.001,-15.625 -15.625,-15.625l-131.25,0c-8.624,0 -15.625,7.002 -15.625,15.625l0,131.25c0,8.624 7.001,15.625 15.625,15.625l131.25,0c8.624,0 15.625,-7.001 15.625,-15.625l0,-131.25Z" style="fill:#ccc;"/><path d="M259.375,181.86c0,-8.623 -7.001,-15.625 -15.625,-15.625l-131.25,0c-8.624,0 -15.625,7.002 -15.625,15.625l0,131.25c0,8.624 7.001,15.625 15.625,15.625l131.25,0c8.624,0 15.625,-7.001 15.625,-15.625l0,-131.25Z" style="fill:#ccc;"/><path d="M240.625,191.235c0,-8.623 -7.001,-15.625 -15.625,-15.625l-93.75,0c-8.624,0 -15.625,7.002 -15.625,15.625l0,93.75c0,8.624 7.001,15.625 15.625,15.625l93.75,0c8.624,0 15.625,-7.001 15.625,-15.625l0,-93.75Z" style="fill:#fcfcfc;"/><path d="M240.625,191.235c0,-8.623 -7.001,-15.625 -15.625,-15.625l-93.75,0c-8.624,0 -15.625,7.002 -15.625,15.625l0,93.75c0,8.624 7.001,15.625 15.625,15.625l93.75,0c8.624,0 15.625,-7.001 15.625,-15.625l0,-93.75Z" style="fill:#fcfcfc;"/></g><g><path d="M2403.12,181.86c0,-8.623 -7.001,-15.625 -15.625,-15.625l-131.25,0c-8.624,0 -15.625,7.002 -15.625,15.625l0,131.25c0,8.624 7.001,15.625 15.625,15.625l131.25,0c8.624,0 15.625,-7.001 15.625,-15.625l0,-131.25Z" style="fill:#ccc;"/><path d="M2403.12,181.86c0,-8.623 -7.001,-15.625 -15.625,-15.625l-131.25,0c-8.624,0 -15.625,7.002 -15.625,15.625l0,131.25c0,8.624 7.001,15.625 15.625,15.625l131.25,0c8.624,0 15.625,-7.001 15.625,-15.625l0,-131.25Z" style="fill:#ccc;"/><path d="M2384.38,191.235c0,-8.623 -7.001,-15.625 -15.625,-15.625l-93.75,0c-8.624,0 -15.625,7.002 -15.625,15.625l0,93.75c0,8.624 7.001,15.625 15.625,15.625l93.75,0c8.624,0 15.625,-7.001 15.625,-15.625l0,-93.75Z" style="fill:#fcfcfc;"/><path d="M2384.38,191.235c0,-8.623 -7.001,-15.625 -15.625,-15.625l-93.75,0c-8.624,0 -15.625,7.002 -15.625,15.625l0,93.75c0,8.624 7.001,15.625 15.625,15.625l93.75,0c8.624,0 15.625,-7.001 15.625,-15.625l0,-93.75Z" style="fill:#fcfcfc;"/></g><g><path d="M596.875,224.048c0,-8.624 -7.001,-15.625 -15.625,-15.625l-131.25,-0c-8.624,-0 -15.625,7.001 -15.625,15.625l0,131.25c0,8.624 7.001,15.625 15.625,15.625l131.25,-0c8.624,-0 15.625,-7.001 15.625,-15.625l0,-131.25Z" style="fill:#ccc;"/><path d="M596.875,224.048c0,-8.624 -7.001,-15.625 -15.625,-15.625l-131.25,-0c-8.624,-0 -15.625,7.001 -15.625,15.625l0,131.25c0,8.624 7.001,15.625 15.625,15.625l131.25,-0c8.624,-0 15.625,-7.001 15.625,-15.625l0,-131.25Z" style="fill:#ccc;"/><path d="M578.125,233.423c0,-8.624 -7.001,-15.625 -15.625,-15.625l-93.75,-0c-8.624,-0 -15.625,7.001 -15.625,15.625l0,93.75c0,8.624 7.001,15.625 15.625,15.625l93.75,-0c8.624,-0 15.625,-7.001 15.625,-15.625l0,-93.75Z" style="fill:#fcfcfc;"/><path d="M578.125,233.423c0,-8.624 -7.001,-15.625 -15.625,-15.625l-93.75,-0c-8.624,-0 -15.625,7.001 -15.625,15.625l0,93.75c0,8.624 7.001,15.625 15.625,15.625l93.75,-0c8.624,-0 15.625,-7.001 15.625,-15.625l0,-93.75Z" style="fill:#fcfcfc;"/></g><g><path d="M2065.62,224.048c0,-8.624 -7.001,-15.625 -15.625,-15.625l-131.25,-0c-8.624,-0 -15.625,7.001 -15.625,15.625l0,131.25c0,8.624 7.001,15.625 15.625,15.625l131.25,-0c8.624,-0 15.625,-7.001 15.625,-15.625l0,-131.25Z" style="fill:#ccc;"/><path d="M2065.62,224.048c0,-8.624 -7.001,-15.625 -15.625,-15.625l-131.25,-0c-8.624,-0 -15.625,7.001 -15.625,15.625l0,131.25c0,8.624 7.001,15.625 15.625,15.625l131.25,-0c8.624,-0 15.625,-7.001 15.625,-15.625l0,-131.25Z" style="fill:#ccc;"/><path d="M2046.88,233.423c0,-8.624 -7.001,-15.625 -15.625,-15.625l-93.75,-0c-8.624,-0 -15.625,7.001 -15.625,15.625l0,93.75c0,8.624 7.001,15.625 15.625,15.625l93.75,-0c8.624,-0 15.625,-7.001 15.625,-15.625l0,-93.75Z" style="fill:#fcfcfc;"/><path d="M2046.88,233.423c0,-8.624 -7.001,-15.625 -15.625,-15.625l-93.75,-0c-8.624,-0 -15.625,7.001 -15.625,15.625l0,93.75c0,8.624 7.001,15.625 15.625,15.625l93.75,-0c8.624,-0 15.625,-7.001 15.625,-15.625l0,-93.75Z" style="fill:#fcfcfc;"/></g><g><path d="M428.125,266.235c0,-8.623 -7.001,-15.625 -15.625,-15.625l-131.25,0c-8.624,0 -15.625,7.002 -15.625,15.625l0,131.25c0,8.624 7.001,15.625 15.625,15.625l131.25,0c8.624,0 15.625,-7.001 15.625,-15.625l0,-131.25Z" style="fill:#ccc;"/><path d="M428.125,266.235c0,-8.623 -7.001,-15.625 -15.625,-15.625l-131.25,0c-8.624,0 -15.625,7.002 -15.625,15.625l0,131.25c0,8.624 7.001,15.625 15.625,15.625l131.25,0c8.624,0 15.625,-7.001 15.625,-15.625l0,-131.25Z" style="fill:#ccc;"/><path d="M409.375,275.61c0,-8.623 -7.001,-15.625 -15.625,-15.625l-93.75,0c-8.624,0 -15.625,7.002 -15.625,15.625l0,93.75c0,8.624 7.001,15.625 15.625,15.625l93.75,0c8.624,0 15.625,-7.001 15.625,-15.625l0,-93.75Z" style="fill:#fcfcfc;"/><path d="M409.375,275.61c0,-8.623 -7.001,-15.625 -15.625,-15.625l-93.75,0c-8.624,0 -15.625,7.002 -15.625,15.625l0,93.75c0,8.624 7.001,15.625 15.625,15.625l93.75,0c8.624,0 15.625,-7.001 15.625,-15.625l0,-93.75Z" style="fill:#fcfcfc;"/></g><g><path d="M765.625,266.235c0,-8.623 -7.001,-15.625 -15.625,-15.625l-131.25,0c-8.624,0 -15.625,7.002 -15.625,15.625l0,131.25c0,8.624 7.001,15.625 15.625,15.625l131.25,0c8.624,0 15.625,-7.001 15.625,-15.625l0,-131.25Z" style="fill:#ccc;"/><path d="M765.625,266.235c0,-8.623 -7.001,-15.625 -15.625,-15.625l-131.25,0c-8.624,0 -15.625,7.002 -15.625,15.625l0,131.25c0,8.624 7.001,15.625 15.625,15.625l131.25,0c8.624,0 15.625,-7.001 15.625,-15.625l0,-131.25Z" style="fill:#ccc;"/><path d="M746.875,275.61c0,-8.623 -7.001,-15.625 -15.625,-15.625l-93.75,0c-8.624,0 -15.625,7.002 -15.625,15.625l0,93.75c0,8.624 7.001,15.625 15.625,15.625l93.75,0c8.624,0 15.625,-7.001 15.625,-15.625l0,-93.75Z" style="fill:#fcfcfc;"/><path d="M746.875,275.61c0,-8.623 -7.001,-15.625 -15.625,-15.625l-93.75,0c-8.624,0 -15.625,7.002 -15.625,15.625l0,93.75c0,8.624 7.001,15.625 15.625,15.625l93.75,0c8.624,0 15.625,-7.001 15.625,-15.625l0,-93.75Z" style="fill:#fcfcfc;"/></g><g><path d="M1896.88,266.235c0,-8.623 -7.001,-15.625 -15.625,-15.625l-131.25,0c-8.624,0 -15.625,7.002 -15.625,15.625l0,131.25c0,8.624 7.001,15.625 15.625,15.625l131.25,0c8.624,0 15.625,-7.001 15.625,-15.625l0,-131.25Z" style="fill:#ccc;"/><path d="M1896.88,266.235c0,-8.623 -7.001,-15.625 -15.625,-15.625l-131.25,0c-8.624,0 -15.625,7.002 -15.625,15.625l0,131.25c0,8.624 7.001,15.625 15.625,15.625l131.25,0c8.624,0 15.625,-7.001 15.625,-15.625l0,-131.25Z" style="fill:#ccc;"/><path d="M1878.12,275.61c0,-8.623 -7.001,-15.625 -15.625,-15.625l-93.75,0c-8.624,0 -15.625,7.002 -15.625,15.625l0,93.75c0,8.624 7.001,15.625 15.625,15.625l93.75,0c8.624,0 15.625,-7.001 15.625,-15.625l0,-93.75Z" style="fill:#fcfcfc;"/><path d="M1878.12,275.61c0,-8.623 -7.001,-15.625 -15.625,-15.625l-93.75,0c-8.624,0 -15.625,7.002 -15.625,15.625l0,93.75c0,8.624 7.001,15.625 15.625,15.625l93.75,0c8.624,0 15.625,-7.001 15.625,-15.625l0,-93.75Z" style="fill:#fcfcfc;"/></g><g><path d="M2234.38,266.235c0,-8.623 -7.001,-15.625 -15.625,-15.625l-131.25,0c-8.624,0 -15.625,7.002 -15.625,15.625l0,131.25c0,8.624 7.001,15.625 15.625,15.625l131.25,0c8.624,0 15.625,-7.001 15.625,-15.625l0,-131.25Z" style="fill:#ccc;"/><path d="M2234.38,266.235c0,-8.623 -7.001,-15.625 -15.625,-15.625l-131.25,0c-8.624,0 -15.625,7.002 -15.625,15.625l0,131.25c0,8.624 7.001,15.625 15.625,15.625l131.25,0c8.624,0 15.625,-7.001 15.625,-15.625l0,-131.25Z" style="fill:#ccc;"/><path d="M2215.62,275.61c0,-8.623 -7.001,-15.625 -15.625,-15.625l-93.75,0c-8.624,0 -15.625,7.002 -15.625,15.625l0,93.75c0,8.624 7.001,15.625 15.625,15.625l93.75,0c8.624,0 15.625,-7.001 15.625,-15.625l0,-93.75Z" style="fill:#fcfcfc;"/><path d="M2215.62,275.61c0,-8.623 -7.001,-15.625 -15.625,-15.625l-93.75,0c-8.624,0 -15.625,7.002 -15.625,15.625l0,93.75c0,8.624 7.001,15.625 15.625,15.625l93.75,0c8.624,0 15.625,-7.001 15.625,-15.625l0,-93.75Z" style="fill:#fcfcfc;"/></g><g><path d="M934.375,287.329c0,-8.624 -7.001,-15.625 -15.625,-15.625l-131.25,0c-8.624,0 -15.625,7.001 -15.625,15.625l0,131.25c0,8.624 7.001,15.625 15.625,15.625l131.25,0c8.624,0 15.625,-7.001 15.625,-15.625l0,-131.25Z" style="fill:#ccc;"/><path d="M934.375,287.329c0,-8.624 -7.001,-15.625 -15.625,-15.625l-131.25,0c-8.624,0 -15.625,7.001 -15.625,15.625l0,131.25c0,8.624 7.001,15.625 15.625,15.625l131.25,0c8.624,0 15.625,-7.001 15.625,-15.625l0,-131.25Z" style="fill:#ccc;"/><path d="M915.625,296.704c0,-8.624 -7.001,-15.625 -15.625,-15.625l-93.75,0c-8.624,0 -15.625,7.001 -15.625,15.625l0,93.75c0,8.624 7.001,15.625 15.625,15.625l93.75,0c8.624,0 15.625,-7.001 15.625,-15.625l0,-93.75Z" style="fill:#fcfcfc;"/><path d="M915.625,296.704c0,-8.624 -7.001,-15.625 -15.625,-15.625l-93.75,0c-8.624,0 -15.625,7.001 -15.625,15.625l0,93.75c0,8.624 7.001,15.625 15.625,15.625l93.75,0c8.624,0 15.625,-7.001 15.625,-15.625l0,-93.75Z" style="fill:#fcfcfc;"/></g><g><path d="M1728.12,287.329c0,-8.624 -7.001,-15.625 -15.625,-15.625l-131.25,0c-8.624,0 -15.625,7.001 -15.625,15.625l0,131.25c0,8.624 7.001,15.625 15.625,15.625l131.25,0c8.624,0 15.625,-7.001 15.625,-15.625l0,-131.25Z" style="fill:#ccc;"/><path d="M1728.12,287.329c0,-8.624 -7.001,-15.625 -15.625,-15.625l-131.25,0c-8.624,0 -15.625,7.001 -15.625,15.625l0,131.25c0,8.624 7.001,15.625 15.625,15.625l131.25,0c8.624,0 15.625,-7.001 15.625,-15.625l0,-131.25Z" style="fill:#ccc;"/><path d="M1709.38,296.704c0,-8.624 -7.001,-15.625 -15.625,-15.625l-93.75,0c-8.624,0 -15.625,7.001 -15.625,15.625l0,93.75c0,8.624 7.001,15.625 15.625,15.625l93.75,0c8.624,0 15.625,-7.001 15.625,-15.625l0,-93.75Z" style="fill:#fcfcfc;"/><path d="M1709.38,296.704c0,-8.624 -7.001,-15.625 -15.625,-15.625l-93.75,0c-8.624,0 -15.625,7.001 -15.625,15.625l0,93.75c0,8.624 7.001,15.625 15.625,15.625l93.75,0c8.624,0 15.625,-7.001 15.625,-15.625l0,-93.75Z" style="fill:#fcfcfc;"/></g><g><path d="M259.375,350.61c0,-8.623 -7.001,-15.625 -15.625,-15.625l-131.25,0c-8.624,0 -15.625,7.002 -15.625,15.625l0,131.25c0,8.624 7.001,15.625 15.625,15.625l131.25,0c8.624,0 15.625,-7.001 15.625,-15.625l0,-131.25Z" style="fill:#ccc;"/><path d="M259.375,350.61c0,-8.623 -7.001,-15.625 -15.625,-15.625l-131.25,0c-8.624,0 -15.625,7.002 -15.625,15.625l0,131.25c0,8.624 7.001,15.625 15.625,15.625l131.25,0c8.624,0 15.625,-7.001 15.625,-15.625l0,-131.25Z" style="fill:#ccc;"/><path d="M240.625,359.985c0,-8.623 -7.001,-15.625 -15.625,-15.625l-93.75,0c-8.624,0 -15.625,7.002 -15.625,15.625l0,93.75c0,8.624 7.001,15.625 15.625,15.625l93.75,0c8.624,0 15.625,-7.001 15.625,-15.625l0,-93.75Z" style="fill:#fcfcfc;"/><path d="M240.625,359.985c0,-8.623 -7.001,-15.625 -15.625,-15.625l-93.75,0c-8.624,0 -15.625,7.002 -15.625,15.625l0,93.75c0,8.624 7.001,15.625 15.625,15.625l93.75,0c8.624,0 15.625,-7.001 15.625,-15.625l0,-93.75Z" style="fill:#fcfcfc;"/></g><g><path d="M2403.12,350.61c0,-8.623 -7.001,-15.625 -15.625,-15.625l-131.25,0c-8.624,0 -15.625,7.002 -15.625,15.625l0,131.25c0,8.624 7.001,15.625 15.625,15.625l131.25,0c8.624,0 15.625,-7.001 15.625,-15.625l0,-131.25Z" style="fill:#ccc;"/><path d="M2403.12,350.61c0,-8.623 -7.001,-15.625 -15.625,-15.625l-131.25,0c-8.624,0 -15.625,7.002 -15.625,15.625l0,131.25c0,8.624 7.001,15.625 15.625,15.625l131.25,0c8.624,0 15.625,-7.001 15.625,-15.625l0,-131.25Z" style="fill:#ccc;"/><path d="M2384.38,359.985c0,-8.623 -7.001,-15.625 -15.625,-15.625l-93.75,0c-8.624,0 -15.625,7.002 -15.625,15.625l0,93.75c0,8.624 7.001,15.625 15.625,15.625l93.75,0c8.624,0 15.625,-7.001 15.625,-15.625l0,-93.75Z" style="fill:#fcfcfc;"/><path d="M2384.38,359.985c0,-8.623 -7.001,-15.625 -15.625,-15.625l-93.75,0c-8.624,0 -15.625,7.002 -15.625,15.625l0,93.75c0,8.624 7.001,15.625 15.625,15.625l93.75,0c8.624,0 15.625,-7.001 15.625,-15.625l0,-93.75Z" style="fill:#fcfcfc;"/></g><g><path d="M596.875,392.798c0,-8.624 -7.001,-15.625 -15.625,-15.625l-131.25,-0c-8.624,-0 -15.625,7.001 -15.625,15.625l0,131.25c0,8.624 7.001,15.625 15.625,15.625l131.25,-0c8.624,-0 15.625,-7.001 15.625,-15.625l0,-131.25Z" style="fill:#ccc;"/><path d="M596.875,392.798c0,-8.624 -7.001,-15.625 -15.625,-15.625l-131.25,-0c-8.624,-0 -15.625,7.001 -15.625,15.625l0,131.25c0,8.624 7.001,15.625 15.625,15.625l131.25,-0c8.624,-0 15.625,-7.001 15.625,-15.625l0,-131.25Z" style="fill:#ccc;"/><path d="M578.125,402.173c0,-8.624 -7.001,-15.625 -15.625,-15.625l-93.75,-0c-8.624,-0 -15.625,7.001 -15.625,15.625l0,93.75c0,8.624 7.001,15.625 15.625,15.625l93.75,-0c8.624,-0 15.625,-7.001 15.625,-15.625l0,-93.75Z" style="fill:#fcfcfc;"/><path d="M578.125,402.173c0,-8.624 -7.001,-15.625 -15.625,-15.625l-93.75,-0c-8.624,-0 -15.625,7.001 -15.625,15.625l0,93.75c0,8.624 7.001,15.625 15.625,15.625l93.75,-0c8.624,-0 15.625,-7.001 15.625,-15.625l0,-93.75Z" style="fill:#fcfcfc;"/></g><g><path d="M2065.62,392.798c0,-8.624 -7.001,-15.625 -15.625,-15.625l-131.25,-0c-8.624,-0 -15.625,7.001 -15.625,15.625l0,131.25c0,8.624 7.001,15.625 15.625,15.625l131.25,-0c8.624,-0 15.625,-7.001 15.625,-15.625l0,-131.25Z" style="fill:#ccc;"/><path d="M2065.62,392.798c0,-8.624 -7.001,-15.625 -15.625,-15.625l-131.25,-0c-8.624,-0 -15.625,7.001 -15.625,15.625l0,131.25c0,8.624 7.001,15.625 15.625,15.625l131.25,-0c8.624,-0 15.625,-7.001 15.625,-15.625l0,-131.25Z" style="fill:#ccc;"/><path d="M2046.88,402.173c0,-8.624 -7.001,-15.625 -15.625,-15.625l-93.75,-0c-8.624,-0 -15.625,7.001 -15.625,15.625l0,93.75c0,8.624 7.001,15.625 15.625,15.625l93.75,-0c8.624,-0 15.625,-7.001 15.625,-15.625l0,-93.75Z" style="fill:#fcfcfc;"/><path d="M2046.88,402.173c0,-8.624 -7.001,-15.625 -15.625,-15.625l-93.75,-0c-8.624,-0 -15.625,7.001 -15.625,15.625l0,93.75c0,8.624 7.001,15.625 15.625,15.625l93.75,-0c8.624,-0 15.625,-7.001 15.625,-15.625l0,-93.75Z" style="fill:#fcfcfc;"/></g><g><path d="M428.125,434.985c0,-8.623 -7.001,-15.625 -15.625,-15.625l-131.25,0c-8.624,0 -15.625,7.002 -15.625,15.625l0,131.25c0,8.624 7.001,15.625 15.625,15.625l131.25,0c8.624,0 15.625,-7.001 15.625,-15.625l0,-131.25Z" style="fill:#ccc;"/><path d="M428.125,434.985c0,-8.623 -7.001,-15.625 -15.625,-15.625l-131.25,0c-8.624,0 -15.625,7.002 -15.625,15.625l0,131.25c0,8.624 7.001,15.625 15.625,15.625l131.25,0c8.624,0 15.625,-7.001 15.625,-15.625l0,-131.25Z" style="fill:#ccc;"/><path d="M409.375,444.36c0,-8.623 -7.001,-15.625 -15.625,-15.625l-93.75,0c-8.624,0 -15.625,7.002 -15.625,15.625l0,93.75c0,8.624 7.001,15.625 15.625,15.625l93.75,0c8.624,0 15.625,-7.001 15.625,-15.625l0,-93.75Z" style="fill:#fcfcfc;"/><path d="M409.375,444.36c0,-8.623 -7.001,-15.625 -15.625,-15.625l-93.75,0c-8.624,0 -15.625,7.002 -15.625,15.625l0,93.75c0,8.624 7.001,15.625 15.625,15.625l93.75,0c8.624,0 15.625,-7.001 15.625,-15.625l0,-93.75Z" style="fill:#fcfcfc;"/></g><g><path d="M765.625,434.985c0,-8.623 -7.001,-15.625 -15.625,-15.625l-131.25,0c-8.624,0 -15.625,7.002 -15.625,15.625l0,131.25c0,8.624 7.001,15.625 15.625,15.625l131.25,0c8.624,0 15.625,-7.001 15.625,-15.625l0,-131.25Z" style="fill:#ccc;"/><path d="M765.625,434.985c0,-8.623 -7.001,-15.625 -15.625,-15.625l-131.25,0c-8.624,0 -15.625,7.002 -15.625,15.625l0,131.25c0,8.624 7.001,15.625 15.625,15.625l131.25,0c8.624,0 15.625,-7.001 15.625,-15.625l0,-131.25Z" style="fill:#ccc;"/><path d="M746.875,444.36c0,-8.623 -7.001,-15.625 -15.625,-15.625l-93.75,0c-8.624,0 -15.625,7.002 -15.625,15.625l0,93.75c0,8.624 7.001,15.625 15.625,15.625l93.75,0c8.624,0 15.625,-7.001 15.625,-15.625l0,-93.75Z" style="fill:#fcfcfc;"/><path d="M746.875,444.36c0,-8.623 -7.001,-15.625 -15.625,-15.625l-93.75,0c-8.624,0 -15.625,7.002 -15.625,15.625l0,93.75c0,8.624 7.001,15.625 15.625,15.625l93.75,0c8.624,0 15.625,-7.001 15.625,-15.625l0,-93.75Z" style="fill:#fcfcfc;"/></g><g><path d="M1896.88,434.985c0,-8.623 -7.001,-15.625 -15.625,-15.625l-131.25,0c-8.624,0 -15.625,7.002 -15.625,15.625l0,131.25c0,8.624 7.001,15.625 15.625,15.625l131.25,0c8.624,0 15.625,-7.001 15.625,-15.625l0,-131.25Z" style="fill:#ccc;"/><path d="M1896.88,434.985c0,-8.623 -7.001,-15.625 -15.625,-15.625l-131.25,0c-8.624,0 -15.625,7.002 -15.625,15.625l0,131.25c0,8.624 7.001,15.625 15.625,15.625l131.25,0c8.624,0 15.625,-7.001 15.625,-15.625l0,-131.25Z" style="fill:#ccc;"/><path d="M1878.12,444.36c0,-8.623 -7.001,-15.625 -15.625,-15.625l-93.75,0c-8.624,0 -15.625,7.002 -15.625,15.625l0,93.75c0,8.624 7.001,15.625 15.625,15.625l93.75,0c8.624,0 15.625,-7.001 15.625,-15.625l0,-93.75Z" style="fill:#fcfcfc;"/><path d="M1878.12,444.36c0,-8.623 -7.001,-15.625 -15.625,-15.625l-93.75,0c-8.624,0 -15.625,7.002 -15.625,15.625l0,93.75c0,8.624 7.001,15.625 15.625,15.625l93.75,0c8.624,0 15.625,-7.001 15.625,-15.625l0,-93.75Z" style="fill:#fcfcfc;"/></g><g><path d="M2234.38,434.985c0,-8.623 -7.001,-15.625 -15.625,-15.625l-131.25,0c-8.624,0 -15.625,7.002 -15.625,15.625l0,131.25c0,8.624 7.001,15.625 15.625,15.625l131.25,0c8.624,0 15.625,-7.001 15.625,-15.625l0,-131.25Z" style="fill:#ccc;"/><path d="M2234.38,434.985c0,-8.623 -7.001,-15.625 -15.625,-15.625l-131.25,0c-8.624,0 -15.625,7.002 -15.625,15.625l0,131.25c0,8.624 7.001,15.625 15.625,15.625l131.25,0c8.624,0 15.625,-7.001 15.625,-15.625l0,-131.25Z" style="fill:#ccc;"/><path d="M2215.62,444.36c0,-8.623 -7.001,-15.625 -15.625,-15.625l-93.75,0c-8.624,0 -15.625,7.002 -15.625,15.625l0,93.75c0,8.624 7.001,15.625 15.625,15.625l93.75,0c8.624,0 15.625,-7.001 15.625,-15.625l0,-93.75Z" style="fill:#fcfcfc;"/><path d="M2215.62,444.36c0,-8.623 -7.001,-15.625 -15.625,-15.625l-93.75,0c-8.624,0 -15.625,7.002 -15.625,15.625l0,93.75c0,8.624 7.001,15.625 15.625,15.625l93.75,0c8.624,0 15.625,-7.001 15.625,-15.625l0,-93.75Z" style="fill:#fcfcfc;"/></g><g><path d="M934.375,456.079c0,-8.624 -7.001,-15.625 -15.625,-15.625l-131.25,0c-8.624,0 -15.625,7.001 -15.625,15.625l0,131.25c0,8.624 7.001,15.625 15.625,15.625l131.25,0c8.624,0 15.625,-7.001 15.625,-15.625l0,-131.25Z" style="fill:#ccc;"/><path d="M934.375,456.079c0,-8.624 -7.001,-15.625 -15.625,-15.625l-131.25,0c-8.624,0 -15.625,7.001 -15.625,15.625l0,131.25c0,8.624 7.001,15.625 15.625,15.625l131.25,0c8.624,0 15.625,-7.001 15.625,-15.625l0,-131.25Z" style="fill:#ccc;"/><path d="M915.625,465.454c0,-8.624 -7.001,-15.625 -15.625,-15.625l-93.75,0c-8.624,0 -15.625,7.001 -15.625,15.625l0,93.75c0,8.624 7.001,15.625 15.625,15.625l93.75,0c8.624,0 15.625,-7.001 15.625,-15.625l0,-93.75Z" style="fill:#fcfcfc;"/><path d="M915.625,465.454c0,-8.624 -7.001,-15.625 -15.625,-15.625l-93.75,0c-8.624,0 -15.625,7.001 -15.625,15.625l0,93.75c0,8.624 7.001,15.625 15.625,15.625l93.75,0c8.624,0 15.625,-7.001 15.625,-15.625l0,-93.75Z" style="fill:#fcfcfc;"/></g><g><path d="M1728.12,456.079c0,-8.624 -7.001,-15.625 -15.625,-15.625l-131.25,0c-8.624,0 -15.625,7.001 -15.625,15.625l0,131.25c0,8.624 7.001,15.625 15.625,15.625l131.25,0c8.624,0 15.625,-7.001 15.625,-15.625l0,-131.25Z" style="fill:#ccc;"/><path d="M1728.12,456.079c0,-8.624 -7.001,-15.625 -15.625,-15.625l-131.25,0c-8.624,0 -15.625,7.001 -15.625,15.625l0,131.25c0,8.624 7.001,15.625 15.625,15.625l131.25,0c8.624,0 15.625,-7.001 15.625,-15.625l0,-131.25Z" style="fill:#ccc;"/><path d="M1709.38,465.454c0,-8.624 -7.001,-15.625 -15.625,-15.625l-93.75,0c-8.624,0 -15.625,7.001 -15.625,15.625l0,93.75c0,8.624 7.001,15.625 15.625,15.625l93.75,0c8.624,0 15.625,-7.001 15.625,-15.625l0,-93.75Z" style="fill:#fcfcfc;"/><path d="M1709.38,465.454c0,-8.624 -7.001,-15.625 -15.625,-15.625l-93.75,0c-8.624,0 -15.625,7.001 -15.625,15.625l0,93.75c0,8.624 7.001,15.625 15.625,15.625l93.75,0c8.624,0 15.625,-7.001 15.625,-15.625l0,-93.75Z" style="fill:#fcfcfc;"/></g><g><path d="M259.375,519.36c0,-8.623 -7.001,-15.625 -15.625,-15.625l-131.25,0c-8.624,0 -15.625,7.002 -15.625,15.625l0,131.25c0,8.624 7.001,15.625 15.625,15.625l131.25,0c8.624,0 15.625,-7.001 15.625,-15.625l0,-131.25Z" style="fill:#ccc;"/><path d="M259.375,519.36c0,-8.623 -7.001,-15.625 -15.625,-15.625l-131.25,0c-8.624,0 -15.625,7.002 -15.625,15.625l0,131.25c0,8.624 7.001,15.625 15.625,15.625l131.25,0c8.624,0 15.625,-7.001 15.625,-15.625l0,-131.25Z" style="fill:#ccc;"/><path d="M240.625,528.735c0,-8.623 -7.001,-15.625 -15.625,-15.625l-93.75,0c-8.624,0 -15.625,7.002 -15.625,15.625l0,93.75c0,8.624 7.001,15.625 15.625,15.625l93.75,0c8.624,0 15.625,-7.001 15.625,-15.625l0,-93.75Z" style="fill:#fcfcfc;"/><path d="M240.625,528.735c0,-8.623 -7.001,-15.625 -15.625,-15.625l-93.75,0c-8.624,0 -15.625,7.002 -15.625,15.625l0,93.75c0,8.624 7.001,15.625 15.625,15.625l93.75,0c8.624,0 15.625,-7.001 15.625,-15.625l0,-93.75Z" style="fill:#fcfcfc;"/></g><g><path d="M2403.12,519.36c0,-8.623 -7.001,-15.625 -15.625,-15.625l-131.25,0c-8.624,0 -15.625,7.002 -15.625,15.625l0,131.25c0,8.624 7.001,15.625 15.625,15.625l131.25,0c8.624,0 15.625,-7.001 15.625,-15.625l0,-131.25Z" style="fill:#ccc;"/><path d="M2403.12,519.36c0,-8.623 -7.001,-15.625 -15.625,-15.625l-131.25,0c-8.624,0 -15.625,7.002 -15.625,15.625l0,131.25c0,8.624 7.001,15.625 15.625,15.625l131.25,0c8.624,0 15.625,-7.001 15.625,-15.625l0,-131.25Z" style="fill:#ccc;"/><path d="M2384.38,528.735c0,-8.623 -7.001,-15.625 -15.625,-15.625l-93.75,0c-8.624,0 -15.625,7.002 -15.625,15.625l0,93.75c0,8.624 7.001,15.625 15.625,15.625l93.75,0c8.624,0 15.625,-7.001 15.625,-15.625l0,-93.75Z" style="fill:#fcfcfc;"/><path d="M2384.38,528.735c0,-8.623 -7.001,-15.625 -15.625,-15.625l-93.75,0c-8.624,0 -15.625,7.002 -15.625,15.625l0,93.75c0,8.624 7.001,15.625 15.625,15.625l93.75,0c8.624,0 15.625,-7.001 15.625,-15.625l0,-93.75Z" style="fill:#fcfcfc;"/></g><g><path d="M428.471,604.825c0,-8.624 -7.001,-15.625 -15.625,-15.625l-131.25,-0c-8.623,-0 -15.625,7.001 -15.625,15.625l0,131.25c0,8.624 7.002,15.625 15.625,15.625l131.25,-0c8.624,-0 15.625,-7.001 15.625,-15.625l0,-131.25Z" style="fill:#ccc;"/><path d="M428.471,604.825c0,-8.624 -7.001,-15.625 -15.625,-15.625l-131.25,-0c-8.623,-0 -15.625,7.001 -15.625,15.625l0,131.25c0,8.624 7.002,15.625 15.625,15.625l131.25,-0c8.624,-0 15.625,-7.001 15.625,-15.625l0,-131.25Z" style="fill:#ccc;"/><path d="M409.721,614.2c0,-8.624 -7.001,-15.625 -15.625,-15.625l-93.75,-0c-8.623,-0 -15.625,7.001 -15.625,15.625l0,93.75c0,8.624 7.002,15.625 15.625,15.625l93.75,-0c8.624,-0 15.625,-7.001 15.625,-15.625l0,-93.75Z" style="fill:#fcfcfc;"/><path d="M409.721,614.2c0,-8.624 -7.001,-15.625 -15.625,-15.625l-93.75,-0c-8.623,-0 -15.625,7.001 -15.625,15.625l0,93.75c0,8.624 7.002,15.625 15.625,15.625l93.75,-0c8.624,-0 15.625,-7.001 15.625,-15.625l0,-93.75Z" style="fill:#fcfcfc;"/></g><g><path d="M2235.62,604.931c-0,-8.623 -7.002,-15.625 -15.625,-15.625l-131.25,0c-8.624,0 -15.625,7.002 -15.625,15.625l-0,131.25c-0,8.624 7.001,15.625 15.625,15.625l131.25,0c8.623,0 15.625,-7.001 15.625,-15.625l-0,-131.25Z" style="fill:#ccc;"/><path d="M2235.62,604.931c-0,-8.623 -7.002,-15.625 -15.625,-15.625l-131.25,0c-8.624,0 -15.625,7.002 -15.625,15.625l-0,131.25c-0,8.624 7.001,15.625 15.625,15.625l131.25,0c8.623,0 15.625,-7.001 15.625,-15.625l-0,-131.25Z" style="fill:#ccc;"/><path d="M2216.87,614.306c-0,-8.623 -7.002,-15.625 -15.625,-15.625l-93.75,0c-8.624,0 -15.625,7.002 -15.625,15.625l-0,93.75c-0,8.624 7.001,15.625 15.625,15.625l93.75,0c8.623,0 15.625,-7.001 15.625,-15.625l-0,-93.75Z" style="fill:#fcfcfc;"/><path d="M2216.87,614.306c-0,-8.623 -7.002,-15.625 -15.625,-15.625l-93.75,0c-8.624,0 -15.625,7.002 -15.625,15.625l-0,93.75c-0,8.624 7.001,15.625 15.625,15.625l93.75,0c8.623,0 15.625,-7.001 15.625,-15.625l-0,-93.75Z" style="fill:#fcfcfc;"/></g><g><path d="M597.111,562.667c-0,-8.624 -7.001,-15.625 -15.625,-15.625l-131.25,-0c-8.624,-0 -15.625,7.001 -15.625,15.625l-0,131.25c-0,8.623 7.001,15.625 15.625,15.625l131.25,-0c8.624,-0 15.625,-7.002 15.625,-15.625l-0,-131.25Z" style="fill:#ccc;"/><path d="M597.111,562.667c-0,-8.624 -7.001,-15.625 -15.625,-15.625l-131.25,-0c-8.624,-0 -15.625,7.001 -15.625,15.625l-0,131.25c-0,8.623 7.001,15.625 15.625,15.625l131.25,-0c8.624,-0 15.625,-7.002 15.625,-15.625l-0,-131.25Z" style="fill:#ccc;"/><path d="M578.361,572.042c-0,-8.624 -7.001,-15.625 -15.625,-15.625l-93.75,-0c-8.624,-0 -15.625,7.001 -15.625,15.625l-0,93.75c-0,8.623 7.001,15.625 15.625,15.625l93.75,-0c8.624,-0 15.625,-7.002 15.625,-15.625l-0,-93.75Z" style="fill:#fcfcfc;"/><path d="M578.361,572.042c-0,-8.624 -7.001,-15.625 -15.625,-15.625l-93.75,-0c-8.624,-0 -15.625,7.001 -15.625,15.625l-0,93.75c-0,8.623 7.001,15.625 15.625,15.625l93.75,-0c8.624,-0 15.625,-7.002 15.625,-15.625l-0,-93.75Z" style="fill:#fcfcfc;"/></g><g><path d="M2066.77,562.579c-0,-8.624 -7.001,-15.625 -15.625,-15.625l-131.25,-0c-8.624,-0 -15.625,7.001 -15.625,15.625l-0,131.25c-0,8.624 7.001,15.625 15.625,15.625l131.25,-0c8.624,-0 15.625,-7.001 15.625,-15.625l-0,-131.25Z" style="fill:#ccc;"/><path d="M2066.77,562.579c-0,-8.624 -7.001,-15.625 -15.625,-15.625l-131.25,-0c-8.624,-0 -15.625,7.001 -15.625,15.625l-0,131.25c-0,8.624 7.001,15.625 15.625,15.625l131.25,-0c8.624,-0 15.625,-7.001 15.625,-15.625l-0,-131.25Z" style="fill:#ccc;"/><path d="M2048.02,571.954c-0,-8.624 -7.001,-15.625 -15.625,-15.625l-93.75,-0c-8.624,-0 -15.625,7.001 -15.625,15.625l-0,93.75c-0,8.624 7.001,15.625 15.625,15.625l93.75,-0c8.624,-0 15.625,-7.001 15.625,-15.625l-0,-93.75Z" style="fill:#fcfcfc;"/><path d="M2048.02,571.954c-0,-8.624 -7.001,-15.625 -15.625,-15.625l-93.75,-0c-8.624,-0 -15.625,7.001 -15.625,15.625l-0,93.75c-0,8.624 7.001,15.625 15.625,15.625l93.75,-0c8.624,-0 15.625,-7.001 15.625,-15.625l-0,-93.75Z" style="fill:#fcfcfc;"/></g><g><path d="M877.813,651.007c2.232,-8.33 -2.719,-16.905 -11.049,-19.137l-126.778,-33.97c-8.33,-2.232 -16.904,2.719 -19.136,11.049l-33.97,126.777c-2.232,8.33 2.718,16.905 11.048,19.137l126.778,33.97c8.33,2.232 16.905,-2.719 19.137,-11.048l33.97,-126.778Z" style="fill:#ccc;"/><path d="M877.813,651.007c2.232,-8.33 -2.719,-16.905 -11.049,-19.137l-126.778,-33.97c-8.33,-2.232 -16.904,2.719 -19.136,11.049l-33.97,126.777c-2.232,8.33 2.718,16.905 11.048,19.137l126.778,33.97c8.33,2.232 16.905,-2.719 19.137,-11.048l33.97,-126.778Z" style="fill:#ccc;"/><path d="M857.275,655.21c2.232,-8.33 -2.719,-16.905 -11.049,-19.137l-90.555,-24.264c-8.33,-2.232 -16.905,2.718 -19.137,11.048l-24.264,90.556c-2.232,8.33 2.719,16.904 11.049,19.136l90.555,24.265c8.33,2.232 16.905,-2.719 19.137,-11.049l24.264,-90.555Z" style="fill:#fcfcfc;"/><path d="M857.275,655.21c2.232,-8.33 -2.719,-16.905 -11.049,-19.137l-90.555,-24.264c-8.33,-2.232 -16.905,2.718 -19.137,11.048l-24.264,90.556c-2.232,8.33 2.719,16.904 11.049,19.136l90.555,24.265c8.33,2.232 16.905,-2.719 19.137,-11.049l24.264,-90.555Z" style="fill:#fcfcfc;"/></g><g><path d="M1055.44,747.542c4.312,-7.469 1.749,-17.033 -5.719,-21.344l-113.666,-65.625c-7.469,-4.312 -17.033,-1.75 -21.344,5.719l-65.625,113.666c-4.312,7.468 -1.75,17.032 5.719,21.344l113.666,65.625c7.468,4.312 17.032,1.749 21.344,-5.719l65.625,-113.666Z" style="fill:#ccc;"/><path d="M1055.44,747.542c4.312,-7.469 1.749,-17.033 -5.719,-21.344l-113.666,-65.625c-7.469,-4.312 -17.033,-1.75 -21.344,5.719l-65.625,113.666c-4.312,7.468 -1.75,17.032 5.719,21.344l113.666,65.625c7.468,4.312 17.032,1.749 21.344,-5.719l65.625,-113.666Z" style="fill:#ccc;"/><path d="M1034.52,746.286c4.312,-7.469 1.749,-17.033 -5.719,-21.344l-81.19,-46.875c-7.468,-4.312 -17.032,-1.75 -21.344,5.719l-46.875,81.19c-4.312,7.468 -1.749,17.032 5.719,21.344l81.19,46.875c7.468,4.312 17.032,1.749 21.344,-5.719l46.875,-81.19Z" style="fill:#fcfcfc;"/><path d="M1034.52,746.286c4.312,-7.469 1.749,-17.033 -5.719,-21.344l-81.19,-46.875c-7.468,-4.312 -17.032,-1.75 -21.344,5.719l-46.875,81.19c-4.312,7.468 -1.749,17.032 5.719,21.344l81.19,46.875c7.468,4.312 17.032,1.749 21.344,-5.719l46.875,-81.19Z" style="fill:#fcfcfc;"/></g><g><path d="M1202.04,886.761c6.098,-6.098 6.098,-15.999 0,-22.097l-92.808,-92.808c-6.097,-6.097 -15.999,-6.097 -22.097,0l-92.807,92.808c-6.098,6.098 -6.098,15.999 -0,22.097l92.807,92.808c6.098,6.098 16,6.098 22.097,0l92.808,-92.808Z" style="fill:#ccc;"/><path d="M1202.04,886.761c6.098,-6.098 6.098,-15.999 0,-22.097l-92.808,-92.808c-6.097,-6.097 -15.999,-6.097 -22.097,0l-92.807,92.808c-6.098,6.098 -6.098,15.999 -0,22.097l92.807,92.808c6.098,6.098 16,6.098 22.097,0l92.808,-92.808Z" style="fill:#ccc;"/><path d="M1182.15,880.132c6.098,-6.098 6.098,-15.999 -0,-22.097l-66.292,-66.291c-6.097,-6.098 -15.999,-6.098 -22.097,-0l-66.291,66.291c-6.098,6.098 -6.098,15.999 0,22.097l66.291,66.291c6.098,6.098 16,6.098 22.097,0l66.292,-66.291Z" style="fill:#fcfcfc;"/><path d="M1182.15,880.132c6.098,-6.098 6.098,-15.999 -0,-22.097l-66.292,-66.291c-6.097,-6.098 -15.999,-6.098 -22.097,-0l-66.291,66.291c-6.098,6.098 -6.098,15.999 0,22.097l66.291,66.291c6.098,6.098 16,6.098 22.097,0l66.292,-66.291Z" style="fill:#fcfcfc;"/></g><g><path d="M1412.87,771.856c-6.098,-6.097 -16,-6.097 -22.097,0l-92.808,92.808c-6.098,6.098 -6.098,15.999 -0,22.097l92.808,92.808c6.097,6.098 15.999,6.098 22.097,0l92.807,-92.808c6.098,-6.098 6.098,-15.999 0,-22.097l-92.807,-92.808Z" style="fill:#ccc;"/><path d="M1412.87,771.856c-6.098,-6.097 -16,-6.097 -22.097,0l-92.808,92.808c-6.098,6.098 -6.098,15.999 -0,22.097l92.808,92.808c6.097,6.098 15.999,6.098 22.097,0l92.807,-92.808c6.098,-6.098 6.098,-15.999 0,-22.097l-92.807,-92.808Z" style="fill:#ccc;"/><path d="M1406.24,791.744c-6.098,-6.098 -16,-6.098 -22.097,-0l-66.292,66.291c-6.098,6.098 -6.098,15.999 0,22.097l66.292,66.291c6.097,6.098 15.999,6.098 22.097,0l66.291,-66.291c6.098,-6.098 6.098,-15.999 -0,-22.097l-66.291,-66.291Z" style="fill:#fcfcfc;"/><path d="M1406.24,791.744c-6.098,-6.098 -16,-6.098 -22.097,-0l-66.292,66.291c-6.098,6.098 -6.098,15.999 0,22.097l66.292,66.291c6.097,6.098 15.999,6.098 22.097,0l66.291,-66.291c6.098,-6.098 6.098,-15.999 -0,-22.097l-66.291,-66.291Z" style="fill:#fcfcfc;"/></g><g><path d="M1585.29,666.292c-4.311,-7.469 -13.875,-10.031 -21.344,-5.719l-113.666,65.625c-7.468,4.311 -10.031,13.875 -5.719,21.344l65.625,113.666c4.312,7.468 13.876,10.031 21.344,5.719l113.666,-65.625c7.469,-4.312 10.031,-13.876 5.719,-21.344l-65.625,-113.666Z" style="fill:#ccc;"/><path d="M1585.29,666.292c-4.311,-7.469 -13.875,-10.031 -21.344,-5.719l-113.666,65.625c-7.468,4.311 -10.031,13.875 -5.719,21.344l65.625,113.666c4.312,7.468 13.876,10.031 21.344,5.719l113.666,-65.625c7.469,-4.312 10.031,-13.876 5.719,-21.344l-65.625,-113.666Z" style="fill:#ccc;"/><path d="M1573.74,683.786c-4.312,-7.469 -13.876,-10.031 -21.344,-5.719l-81.19,46.875c-7.468,4.311 -10.031,13.875 -5.719,21.344l46.875,81.19c4.312,7.468 13.876,10.031 21.344,5.719l81.19,-46.875c7.468,-4.312 10.031,-13.876 5.719,-21.344l-46.875,-81.19Z" style="fill:#fcfcfc;"/><path d="M1573.74,683.786c-4.312,-7.469 -13.876,-10.031 -21.344,-5.719l-81.19,46.875c-7.468,4.311 -10.031,13.875 -5.719,21.344l46.875,81.19c4.312,7.468 13.876,10.031 21.344,5.719l81.19,-46.875c7.468,-4.312 10.031,-13.876 5.719,-21.344l-46.875,-81.19Z" style="fill:#fcfcfc;"/></g><g><path d="M1779.15,608.949c-2.232,-8.33 -10.806,-13.281 -19.136,-11.049l-126.778,33.97c-8.33,2.232 -13.281,10.807 -11.049,19.137l33.97,126.778c2.232,8.329 10.807,13.28 19.137,11.048l126.778,-33.97c8.33,-2.232 13.28,-10.807 11.048,-19.137l-33.97,-126.777Z" style="fill:#ccc;"/><path d="M1779.15,608.949c-2.232,-8.33 -10.806,-13.281 -19.136,-11.049l-126.778,33.97c-8.33,2.232 -13.281,10.807 -11.049,19.137l33.97,126.778c2.232,8.329 10.807,13.28 19.137,11.048l126.778,-33.97c8.33,-2.232 13.28,-10.807 11.048,-19.137l-33.97,-126.777Z" style="fill:#ccc;"/><path d="M1763.47,622.857c-2.232,-8.33 -10.807,-13.28 -19.137,-11.048l-90.555,24.264c-8.33,2.232 -13.281,10.807 -11.049,19.137l24.264,90.555c2.232,8.33 10.807,13.281 19.137,11.049l90.555,-24.265c8.33,-2.232 13.281,-10.806 11.049,-19.136l-24.264,-90.556Z" style="fill:#fcfcfc;"/><path d="M1763.47,622.857c-2.232,-8.33 -10.807,-13.28 -19.137,-11.048l-90.555,24.264c-8.33,2.232 -13.281,10.807 -11.049,19.137l24.264,90.555c2.232,8.33 10.807,13.281 19.137,11.049l90.555,-24.265c8.33,-2.232 13.281,-10.806 11.049,-19.136l-24.264,-90.556Z" style="fill:#fcfcfc;"/></g><text x="125px" y="256.528px" style="font-family:'ArialMT', 'Arial', sans-serif;font-size:56.25px;">Q</text><text x="1590.62px" y="190.903px" style="font-family:'ArialMT', 'Arial', sans-serif;font-size:56.25px;">Y</text><text x="1590.62px" y="359.653px" style="font-family:'ArialMT', 'Arial', sans-serif;font-size:56.25px;">H</text><text x="1590.62px" y="528.403px" style="font-family:'ArialMT', 'Arial', sans-serif;font-size:56.25px;">N</text><text x="1759.38px" y="172.153px" style="font-family:'ArialMT', 'Arial', sans-serif;font-size:56.25px;">U</text><text x="1759.38px" y="340.903px" style="font-family:'ArialMT', 'Arial', sans-serif;font-size:56.25px;">J</text><text x="1759.38px" y="509.653px" style="font-family:'ArialMT', 'Arial', sans-serif;font-size:56.25px;">M</text><text x="1928.12px" y="131.528px" style="font-family:'ArialMT', 'Arial', sans-serif;font-size:56.25px;">I</text><text x="1928.12px" y="300.278px" style="font-family:'ArialMT', 'Arial', sans-serif;font-size:56.25px;">K</text><text x="1928.12px" y="469.028px" style="font-family:'ArialMT', 'Arial', sans-serif;font-size:56.25px;">,</text><text x="2096.88px" y="172.153px" style="font-family:'ArialMT', 'Arial', sans-serif;font-size:56.25px;">O</text><text x="2096.88px" y="340.903px" style="font-family:'ArialMT', 'Arial', sans-serif;font-size:56.25px;">L</text><text x="2096.88px" y="509.653px" style="font-family:'ArialMT', 'Arial', sans-serif;font-size:56.25px;">.</text><text x="2265.62px" y="253.403px" style="font-family:'ArialMT', 'Arial', sans-serif;font-size:56.25px;">P</text><text x="2265.62px" y="422.153px" style="font-family:'ArialMT', 'Arial', sans-serif;font-size:56.25px;">&apos;</text><text x="2265.62px" y="590.903px" style="font-family:'ArialMT', 'Arial', sans-serif;font-size:56.25px;">/</text><text x="125px" y="422.153px" style="font-family:'ArialMT', 'Arial', sans-serif;font-size:56.25px;">A</text><text x="125px" y="594.028px" style="font-family:'ArialMT', 'Arial', sans-serif;font-size:56.25px;">Z</text><text x="293.75px" y="175.278px" style="font-family:'ArialMT', 'Arial', sans-serif;font-size:56.25px;">W</text><text x="293.75px" y="340.903px" style="font-family:'ArialMT', 'Arial', sans-serif;font-size:56.25px;">S</text><text x="293.75px" y="512.778px" style="font-family:'ArialMT', 'Arial', sans-serif;font-size:56.25px;">X</text><text x="462.5px" y="134.653px" style="font-family:'ArialMT', 'Arial', sans-serif;font-size:56.25px;">E</text><text x="462.5px" y="300.278px" style="font-family:'ArialMT', 'Arial', sans-serif;font-size:56.25px;">D</text><text x="462.5px" y="472.153px" style="font-family:'ArialMT', 'Arial', sans-serif;font-size:56.25px;">C</text><text x="631.25px" y="175.278px" style="font-family:'ArialMT', 'Arial', sans-serif;font-size:56.25px;">R</text><text x="631.25px" y="340.903px" style="font-family:'ArialMT', 'Arial', sans-serif;font-size:56.25px;">F</text><text x="631.25px" y="512.778px" style="font-family:'ArialMT', 'Arial', sans-serif;font-size:56.25px;">V</text><text x="800px" y="194.028px" style="font-family:'ArialMT', 'Arial', sans-serif;font-size:56.25px;">T</text><text x="800px" y="359.653px" style="font-family:'ArialMT', 'Arial', sans-serif;font-size:56.25px;">G</text><text x="800px" y="531.528px" style="font-family:'ArialMT', 'Arial', sans-serif;font-size:56.25px;">B</text><g transform="matrix(0.966013,0.258494,-0.258494,0.966013,116.699,-173.905)"><text x="810.305px" y="671.659px" style="font-family:'ArialMT', 'Arial', sans-serif;font-size:46.875px;">Esc</text></g><g transform="matrix(0.966013,0.258494,-0.258494,0.966013,138.66,-169.153)"><text x="806.522px" y="741.881px" style="font-family:'ArialMT', 'Arial', sans-serif;font-size:25px;fill:#f913ff;">Umlaut</text></g><text x="170.028px" y="422.077px" style="font-family:'ArialMT', 'Arial', sans-serif;font-size:28.333px;fill:#f913ff;">Ä</text><text x="1805.88px" y="171.357px" style="font-family:'ArialMT', 'Arial', sans-serif;font-size:28.333px;fill:#f913ff;">Ü</text><text x="2145.32px" y="170.239px" style="font-family:'ArialMT', 'Arial', sans-serif;font-size:28.333px;fill:#f913ff;">Ö</text><text x="335.331px" y="340.113px" style="font-family:'ArialMT', 'Arial', sans-serif;font-size:28.333px;fill:#f913ff;">ß</text><g transform="matrix(0.999997,-0.00245244,0.00245244,0.999997,-0.987676,0.942644)"><text x="476.405px" y="702.36px" style="font-family:'ArialMT', 'Arial', sans-serif;font-size:25px;fill:#f90000;">Special</text></g><g transform="matrix(0.965235,0.261384,-0.261384,0.965235,133.351,-174.196)"><text x="822.401px" y="713.362px" style="font-family:'ArialMT', 'Arial', sans-serif;font-size:25px;fill:#f90000;">Reset</text></g><g transform="matrix(0.965756,-0.259453,0.259453,0.965756,-79.8593,415.581)"><text x="1628.34px" y="809.477px" style="font-family:'ArialMT', 'Arial', sans-serif;font-size:25px;fill:#f913ff;">Umlaut</text></g><g transform="matrix(0.866931,0.498428,-0.498428,0.866931,378.133,-406.057)"><text x="1060.84px" y="804.304px" style="font-family:'ArialMT', 'Arial', sans-serif;font-size:25px;fill:#3db8ff;">Nav</text></g><g transform="matrix(0.865148,-0.501517,0.501517,0.865148,-140.431,748.926)"><text x="1429.55px" y="934.754px" style="font-family:'ArialMT', 'Arial', sans-serif;font-size:25px;fill:#1b59ff;">Num</text></g><g transform="matrix(0.708655,-0.705555,0.705555,0.708655,-243.163,1044.32)"><text x="1237.36px" y="1115.75px" style="font-family:'ArialMT', 'Arial', sans-serif;font-size:25px;fill:#0b0;">Symbols</text></g><text x="2142.89px" y="745.244px" style="font-family:'ArialMT', 'Arial', sans-serif;font-size:25px;fill:#ff9f00;">Fn</text><g transform="matrix(0.865783,0.500419,-0.500419,0.865783,369.709,-455.131)"><text x="1154.4px" y="763.05px" style="font-family:'ArialMT', 'Arial', sans-serif;font-size:28.125px;fill:#1b59ff;">0</text></g><g transform="matrix(0.706916,0.707298,-0.707298,0.706916,793.319,-710.998)"><text x="1381.94px" y="903.152px" style="font-family:'ArialMT', 'Arial', sans-serif;font-size:28.125px;fill:#1b59ff;">-</text></g><g transform="matrix(0.965825,0.259195,-0.259195,0.965825,126.736,-189.45)"><text x="910.707px" y="687.277px" style="font-family:'ArialMT', 'Arial', sans-serif;font-size:28.125px;fill:#1b59ff;">.</text></g><g transform="matrix(0.865783,0.500419,-0.500419,0.865783,345.52,-461.618)"><text x="1182.33px" y="714.713px" style="font-family:'ArialMT', 'Arial', sans-serif;font-size:28.125px;fill:#0b0;">)</text></g><g transform="matrix(0.707266,0.706947,-0.706947,0.707266,764.03,-732.386)"><text x="1409.11px" y="857.764px" style="font-family:'ArialMT', 'Arial', sans-serif;font-size:28.125px;fill:#0b0;">_</text></g><g transform="matrix(0.965161,0.261658,-0.261658,0.965161,114.229,-189.095)"><text x="916.221px" y="635.802px" style="font-family:'ArialMT', 'Arial', sans-serif;font-size:28.125px;fill:#0b0;">(</text></g><g transform="matrix(1,0.000599373,-0.000599373,1,0.120054,-0.361618)"><text x="724.472px" y="501.515px" style="font-family:'ArialMT', 'Arial', sans-serif;font-size:28.125px;fill:#1b59ff;">3</text></g><g transform="matrix(1,0.000599373,-0.000599373,1,0.096201,-0.260298)"><text x="555.416px" y="461.769px" style="font-family:'ArialMT', 'Arial', sans-serif;font-size:28.125px;fill:#1b59ff;">2</text></g><g transform="matrix(1,0.000599373,-0.000599373,1,0.120741,-0.157345)"><text x="383.66px" y="502.764px" style="font-family:'ArialMT', 'Arial', sans-serif;font-size:28.125px;fill:#1b59ff;">1</text></g><g transform="matrix(1,0.000599373,-0.000599373,1,0.170319,-0.0573629)"><text x="223.15px" y="585.529px" style="font-family:'ArialMT', 'Arial', sans-serif;font-size:28.125px;fill:#1b59ff;">`</text></g><g transform="matrix(1,0.000599373,-0.000599373,1,0.146161,-0.0573702)"><text x="216.091px" y="545.224px" style="font-family:'ArialMT', 'Arial', sans-serif;font-size:28.125px;fill:#0b0;">~</text></g><g transform="matrix(1,0.000599373,-0.000599373,1,0.0959332,-0.155616)"><text x="388.59px" y="461.374px" style="font-family:'ArialMT', 'Arial', sans-serif;font-size:28.125px;fill:#0b0;">!</text></g><g transform="matrix(1,0.000599373,-0.000599373,1,0.0717457,-0.259706)"><text x="541.507px" y="420.968px" style="font-family:'ArialMT', 'Arial', sans-serif;font-size:28.125px;fill:#0b0;">@</text></g><g transform="matrix(1,0.000599373,-0.000599373,1,0.0955308,-0.360731)"><text x="722.978px" y="460.6px" style="font-family:'ArialMT', 'Arial', sans-serif;font-size:28.125px;fill:#0b0;">#</text></g><g transform="matrix(1,0.000599373,-0.000599373,1,0.107199,-0.460105)"><text x="897.117px" y="480.018px" style="font-family:'ArialMT', 'Arial', sans-serif;font-size:28.125px;fill:#0b0;">|</text></g><g transform="matrix(1,0.000599373,-0.000599373,1,0.195365,-0.036752)"><text x="184.052px" y="627.328px" style="font-family:'ArialMT', 'Arial', sans-serif;font-size:28.125px;fill:#ff9f00;">F10</text></g><g transform="matrix(1,0.000599373,-0.000599373,1,0.145041,-0.136717)"><text x="366.451px" y="543.316px" style="font-family:'ArialMT', 'Arial', sans-serif;font-size:28.125px;fill:#ff9f00;">F1</text></g><g transform="matrix(1,0.000599373,-0.000599373,1,0.120816,-0.239807)"><text x="538.435px" y="502.846px" style="font-family:'ArialMT', 'Arial', sans-serif;font-size:28.125px;fill:#ff9f00;">F2</text></g><g transform="matrix(1,0.000599373,-0.000599373,1,0.146137,-0.341188)"><text x="707.594px" y="545.042px" style="font-family:'ArialMT', 'Arial', sans-serif;font-size:28.125px;fill:#ff9f00;">F3</text></g><g transform="matrix(1,0.000599373,-0.000599373,1,0.158442,-0.441608)"><text x="828.217px" y="565.522px" style="font-family:'ArialMT', 'Arial', sans-serif;font-size:28.125px;fill:#ff9f00;">Pause</text></g><g transform="matrix(1,0.000599373,-0.000599373,1,0.133085,-0.462108)"><text x="899.963px" y="523.206px" style="font-family:'ArialMT', 'Arial', sans-serif;font-size:28.125px;fill:#1b59ff;">\</text></g><g transform="matrix(1,0.000599373,-0.000599373,1,0.0165229,-0.361649)"><text x="724.472px" y="328.782px" style="font-family:'ArialMT', 'Arial', sans-serif;font-size:28.125px;fill:#1b59ff;">6</text></g><g transform="matrix(1,0.000599373,-0.000599373,1,-0.00733005,-0.260329)"><text x="555.416px" y="289.036px" style="font-family:'ArialMT', 'Arial', sans-serif;font-size:28.125px;fill:#1b59ff;">5</text></g><g transform="matrix(1,0.000599373,-0.000599373,1,0.0172104,-0.157376)"><text x="383.66px" y="330.031px" style="font-family:'ArialMT', 'Arial', sans-serif;font-size:28.125px;fill:#1b59ff;">4</text></g><g transform="matrix(1,0.000599373,-0.000599373,1,0.0667875,-0.0573939)"><text x="224.701px" y="412.797px" style="font-family:'ArialMT', 'Arial', sans-serif;font-size:28.125px;fill:#1b59ff;">;</text></g><g transform="matrix(1,0.000599373,-0.000599373,1,0.0426298,-0.0574012)"><text x="224.701px" y="372.491px" style="font-family:'ArialMT', 'Arial', sans-serif;font-size:28.125px;fill:#0b0;">:</text></g><g transform="matrix(1,0.000599373,-0.000599373,1,-0.00759732,-0.15752)"><text x="383.888px" y="288.642px" style="font-family:'ArialMT', 'Arial', sans-serif;font-size:28.125px;fill:#0b0;">$</text></g><g transform="matrix(1,0.000599373,-0.000599373,1,-0.0317848,-0.26161)"><text x="548.176px" y="248.235px" style="font-family:'ArialMT', 'Arial', sans-serif;font-size:28.125px;fill:#0b0;">%</text></g><g transform="matrix(1,0.000599373,-0.000599373,1,-0.00799967,-0.362635)"><text x="728.548px" y="287.868px" style="font-family:'ArialMT', 'Arial', sans-serif;font-size:28.125px;fill:#0b0;">^</text></g><g transform="matrix(1,0.000599373,-0.000599373,1,0.00366851,-0.462009)"><text x="891.124px" y="307.286px" style="font-family:'ArialMT', 'Arial', sans-serif;font-size:28.125px;fill:#0b0;">+</text></g><g transform="matrix(1,0.000599373,-0.000599373,1,0.0937041,-0.0330364)"><text x="186.139px" y="457.717px" style="font-family:'ArialMT', 'Arial', sans-serif;font-size:28.125px;fill:#ff9f00;">F1<tspan x="216.874px " y="457.717px ">1</tspan></text></g><g transform="matrix(1,0.000599373,-0.000599373,1,0.0433795,-0.133001)"><text x="366.451px" y="373.705px" style="font-family:'ArialMT', 'Arial', sans-serif;font-size:28.125px;fill:#ff9f00;">F4</text></g><g transform="matrix(1,0.000599373,-0.000599373,1,0.0191542,-0.236091)"><text x="538.435px" y="333.235px" style="font-family:'ArialMT', 'Arial', sans-serif;font-size:28.125px;fill:#ff9f00;">F5</text></g><g transform="matrix(1,0.000599373,-0.000599373,1,0.0444753,-0.337473)"><text x="707.594px" y="375.43px" style="font-family:'ArialMT', 'Arial', sans-serif;font-size:28.125px;fill:#ff9f00;">F6</text></g><g transform="matrix(1,0.000599373,-0.000599373,1,0.0567655,-0.421035)"><text x="806.368px" y="395.894px" style="font-family:'ArialMT', 'Arial', sans-serif;font-size:28.125px;fill:#ff9f00;">ScrLock</text></g><g transform="matrix(1,0.000599373,-0.000599373,1,0.0295543,-0.462139)"><text x="891.353px" y="350.474px" style="font-family:'ArialMT', 'Arial', sans-serif;font-size:28.125px;fill:#1b59ff;">=</text></g><g transform="matrix(1,0.000599373,-0.000599373,1,-0.0833272,-0.361679)"><text x="724.472px" y="162.191px" style="font-family:'ArialMT', 'Arial', sans-serif;font-size:28.125px;fill:#1b59ff;">9</text></g><g transform="matrix(1,0.000599373,-0.000599373,1,-0.10718,-0.260359)"><text x="555.416px" y="122.445px" style="font-family:'ArialMT', 'Arial', sans-serif;font-size:28.125px;fill:#1b59ff;">8</text></g><g transform="matrix(1,0.000599373,-0.000599373,1,-0.0826397,-0.157406)"><text x="383.66px" y="163.44px" style="font-family:'ArialMT', 'Arial', sans-serif;font-size:28.125px;fill:#1b59ff;">7</text></g><g transform="matrix(1,0.000599373,-0.000599373,1,-0.0330626,-0.0574239)"><text x="224.701px" y="246.205px" style="font-family:'ArialMT', 'Arial', sans-serif;font-size:28.125px;fill:#1b59ff;">[</text></g><g transform="matrix(1,0.000599373,-0.000599373,1,-0.0572204,-0.0574311)"><text x="223.122px" y="205.9px" style="font-family:'ArialMT', 'Arial', sans-serif;font-size:28.125px;fill:#0b0;">{</text></g><g transform="matrix(1,0.000599373,-0.000599373,1,-0.107447,-0.15755)"><text x="380.77px" y="122.051px" style="font-family:'ArialMT', 'Arial', sans-serif;font-size:28.125px;fill:#0b0;">&amp;</text></g><g transform="matrix(1,0.000599373,-0.000599373,1,-0.131635,-0.259767)"><text x="559.113px" y="81.644px" style="font-family:'ArialMT', 'Arial', sans-serif;font-size:28.125px;fill:#0b0;">*</text></g><g transform="matrix(1,0.000599373,-0.000599373,1,-0.10785,-0.360792)"><text x="729.254px" y="121.277px" style="font-family:'ArialMT', 'Arial', sans-serif;font-size:28.125px;fill:#0b0;">(</text></g><g transform="matrix(1,0.000599373,-0.000599373,1,-0.0961822,-0.460166)"><text x="895.03px" y="140.695px" style="font-family:'ArialMT', 'Arial', sans-serif;font-size:28.125px;fill:#0b0;">}</text></g><g transform="matrix(1,0.000599373,-0.000599373,1,-0.00800896,-0.0443051)"><text x="184.052px" y="288.012px" style="font-family:'ArialMT', 'Arial', sans-serif;font-size:28.125px;fill:#ff9f00;">F12</text></g><g transform="matrix(1,0.000599373,-0.000599373,1,-0.0583336,-0.14427)"><text x="366.451px" y="204px" style="font-family:'ArialMT', 'Arial', sans-serif;font-size:28.125px;fill:#ff9f00;">F7</text></g><g transform="matrix(1,0.000599373,-0.000599373,1,-0.0825589,-0.24736)"><text x="538.435px" y="163.53px" style="font-family:'ArialMT', 'Arial', sans-serif;font-size:28.125px;fill:#ff9f00;">F8</text></g><g transform="matrix(1,0.000599373,-0.000599373,1,-0.0572378,-0.348742)"><text x="707.594px" y="205.726px" style="font-family:'ArialMT', 'Arial', sans-serif;font-size:28.125px;fill:#ff9f00;">F9</text></g><g transform="matrix(1,0.000599373,-0.000599373,1,-0.044956,-0.422939)"><text x="829.837px" y="226.18px" style="font-family:'ArialMT', 'Arial', sans-serif;font-size:28.125px;fill:#ff9f00;">PrtScr</text></g><g transform="matrix(1,0.000599373,-0.000599373,1,-0.0702959,-0.462169)"><text x="899.963px" y="183.883px" style="font-family:'ArialMT', 'Arial', sans-serif;font-size:28.125px;fill:#1b59ff;">]</text></g><g transform="matrix(3.125,-0.00155832,0.00155832,3.125,1524.36,64.4923)"><text x="35.447px" y="96.447px" style="font-family:'ArialMT', 'Arial', sans-serif;font-size:9px;fill:#3db8ff;">Caps</text><text x="37.447px" y="105.741px" style="font-family:'ArialMT', 'Arial', sans-serif;font-size:9px;fill:#3db8ff;">Lock</text></g><g transform="matrix(1,-0.000498662,0.000498662,1,-0.129593,0.760173)"><text x="1630.45px" y="561.658px" style="font-family:'ArialMT', 'Arial', sans-serif;font-size:28.125px;fill:#3db8ff;">Insert</text></g><g transform="matrix(1,-0.000498662,0.000498662,1,-0.0956125,0.0213862)"><text x="143.011px" y="490.907px" style="font-family:'ArialMT', 'Arial', sans-serif;font-size:25px;">Super</text></g><g transform="matrix(1,-0.000498662,0.000498662,1,-0.0539,0.10719)"><text x="333.868px" y="407.301px" style="font-family:'ArialMT', 'Arial', sans-serif;font-size:25px;">Alt</text></g><g transform="matrix(1,-0.000498662,0.000498662,1,-0.138681,0.106726)"><text x="319.009px" y="577.317px" style="font-family:'ArialMT', 'Arial', sans-serif;font-size:25px;">AltGr</text></g><g transform="matrix(1,-0.000498662,0.000498662,1,-0.0333644,0.191022)"><text x="497.14px" y="366.161px" style="font-family:'ArialMT', 'Arial', sans-serif;font-size:25px;">Ctrl</text></g><g transform="matrix(1,-0.000498662,0.000498662,1,-0.0540006,0.839157)"><text x="1791.3px" y="407.868px" style="font-family:'ArialMT', 'Arial', sans-serif;font-size:25px;">Shift</text></g><g transform="matrix(1,-0.000498662,0.000498662,1,-0.0329641,0.923858)"><text x="1966.75px" y="365.725px" style="font-family:'ArialMT', 'Arial', sans-serif;font-size:25px;">Ctrl</text></g><g transform="matrix(1,-0.000498662,0.000498662,1,-0.053711,1.00801)"><text x="2140.35px" y="407.372px" style="font-family:'ArialMT', 'Arial', sans-serif;font-size:25px;">Alt</text></g><g transform="matrix(1,-0.000498662,0.000498662,1,-0.0951062,1.09207)"><text x="2290.12px" y="490.427px" style="font-family:'ArialMT', 'Arial', sans-serif;font-size:25px;">Super</text></g><g transform="matrix(1,-0.000498662,0.000498662,1,-0.137952,1.00803)"><text x="2126.46px" y="576.307px" style="font-family:'ArialMT', 'Arial', sans-serif;font-size:25px;">AltGr</text></g><g transform="matrix(1,-0.000498662,0.000498662,1,-0.0543136,0.275102)"><text x="660.168px" y="408.214px" style="font-family:'ArialMT', 'Arial', sans-serif;font-size:25px;">Shift</text></g><g transform="matrix(1,-0.000498662,0.000498662,1,-0.118664,0.84432)"><text x="1794.52px" y="539.783px" style="font-family:'ArialMT', 'Arial', sans-serif;font-size:28.125px;fill:#3db8ff;">Home</text></g><g transform="matrix(1,-0.000498662,0.000498662,1,-0.00983084,0.853643)"><text x="1820.39px" y="339.691px" style="font-family:'HiraKakuProN-W3', 'Hiragino Kaku Gothic ProN', sans-serif;font-weight:300;font-size:50px;fill:#3db8ff;">⭠</text></g><g transform="matrix(-1,-2.5375e-16,4.25668e-16,-1,4969.55,1414.92)"><text x="2593.3px" y="1027.01px" style="font-family:'HiraKakuProN-W3', 'Hiragino Kaku Gothic ProN', sans-serif;font-weight:300;font-size:50px;fill:#3db8ff;">⭠</text></g><g transform="matrix(-2.95736e-17,-1,1,1.42276e-16,1314.09,2135.43)"><text x="1833.29px" y="730.218px" style="font-family:'HiraKakuProN-W3', 'Hiragino Kaku Gothic ProN', sans-serif;font-weight:300;font-size:50px;fill:#3db8ff;">⭠</text></g><g transform="matrix(-7.00063e-17,1,-1,-2.41856e-16,2677.09,-2308.61)"><text x="2601.38px" y="503.789px" style="font-family:'HiraKakuProN-W3', 'Hiragino Kaku Gothic ProN', sans-serif;font-weight:300;font-size:50px;fill:#3db8ff;">⭠</text></g><g transform="matrix(3.125,-0.00155832,0.00155832,3.125,1861.86,169.637)"><text x="35.438px" y="96.447px" style="font-family:'ArialMT', 'Arial', sans-serif;font-size:9px;fill:#3db8ff;">Page</text><text x="44.952px" y="105.741px" style="font-family:'ArialMT', 'Arial', sans-serif;font-size:9px;fill:#3db8ff;">Up</text></g><g transform="matrix(3.125,-0.00155832,0.00155832,3.125,2030.61,210.262)"><text x="35.438px" y="96.447px" style="font-family:'ArialMT', 'Arial', sans-serif;font-size:9px;fill:#3db8ff;">Page</text><text x="33.448px" y="105.741px" style="font-family:'ArialMT', 'Arial', sans-serif;font-size:9px;fill:#3db8ff;">Down</text></g><g transform="matrix(1,-0.000498662,0.000498662,1,0.0491806,0.843737)"><text x="1801.22px" y="203.193px" style="font-family:'ArialMT', 'Arial', sans-serif;font-size:28.125px;fill:#3db8ff;">Undo</text></g><g transform="matrix(1,-0.000498662,0.000498662,1,0.0688513,0.926339)"><text x="1990.35px" y="163.787px" style="font-family:'ArialMT', 'Arial', sans-serif;font-size:28.125px;fill:#3db8ff;">Cut</text></g><g transform="matrix(1,-0.000498662,0.000498662,1,0.0486455,1.01315)"><text x="2142.54px" y="204.351px" style="font-family:'ArialMT', 'Arial', sans-serif;font-size:28.125px;fill:#3db8ff;">Copy</text></g><g transform="matrix(1,-0.000498662,0.000498662,1,0.00752878,1.09623)"><text x="2302.85px" y="286.846px" style="font-family:'ArialMT', 'Arial', sans-serif;font-size:28.125px;fill:#3db8ff;">Paste</text></g><g transform="matrix(1,-0.000498662,0.000498662,1,-0.160053,1.09718)"><text x="2326.55px" y="622.91px" style="font-family:'ArialMT', 'Arial', sans-serif;font-size:28.125px;fill:#3db8ff;">End</text></g><g transform="matrix(0.866036,0.499981,-0.499981,0.866036,341.212,-434.901)"><text x="1072.8px" y="734.115px" style="font-family:'ArialMT', 'Arial', sans-serif;font-size:46.875px;">Spc</text></g><g transform="matrix(0.706726,-0.707488,0.707488,0.706726,-199.337,1000.19)"><text x="1197.38px" y="1057.92px" style="font-family:'LucidaGrande', 'Lucida Grande', sans-serif;font-weight:500;font-size:46.875px;">↵</text></g><g transform="matrix(0.866213,-0.499676,0.499676,0.866213,-106.167,717.608)"><text x="1377.62px" y="874.453px" style="font-family:'LucidaGrande', 'Lucida Grande', sans-serif;font-weight:500;font-size:46.875px;">⌫</text></g><g transform="matrix(-0.965344,0.260981,-0.260981,-0.965344,3994.53,1350.83)"><text x="1998.2px" y="1258.03px" style="font-family:'LucidaGrande', 'Lucida Grande', sans-serif;font-weight:500;font-size:46.875px;">⌫</text></g><g transform="matrix(0.702551,0.711633,-0.711633,0.702551,749.829,-711.895)"><text x="1317.13px" y="858.41px" style="font-family:'LucidaGrande', 'Lucida Grande', sans-serif;font-weight:500;font-size:46.875px;">⇤</text></g><g transform="matrix(-0.707107,-0.707107,0.707107,-0.707107,798.033,2621.46)"><text x="1032.56px" y="1462.84px" style="font-family:'LucidaGrande', 'Lucida Grande', sans-serif;font-weight:500;font-size:46.875px;">⇤</text></g></g><text x="120.238px" y="201.626px" style="font-family:'ArialMT', 'Arial', sans-serif;font-size:28.333px;fill:#737373;">1</text><text x="292.716px" y="118.842px" style="font-family:'ArialMT', 'Arial', sans-serif;font-size:28.333px;fill:#737373;">2</text><text x="460.998px" y="77.689px" style="font-family:'ArialMT', 'Arial', sans-serif;font-size:28.333px;fill:#737373;">3</text><text x="630.959px" y="119.732px" style="font-family:'ArialMT', 'Arial', sans-serif;font-size:28.333px;fill:#737373;">4</text><text x="799.756px" y="139.077px" style="font-family:'ArialMT', 'Arial', sans-serif;font-size:28.333px;fill:#737373;">5</text><text x="1592.77px" y="139.172px" style="font-family:'ArialMT', 'Arial', sans-serif;font-size:28.333px;fill:#737373;">21</text><text x="1763.15px" y="118.064px" style="font-family:'ArialMT', 'Arial', sans-serif;font-size:28.333px;fill:#737373;">22</text><text x="1932.12px" y="76.956px" style="font-family:'ArialMT', 'Arial', sans-serif;font-size:28.333px;fill:#737373;">23</text><text x="2101.82px" y="118.333px" style="font-family:'ArialMT', 'Arial', sans-serif;font-size:28.333px;fill:#737373;">24</text><text x="2270.96px" y="203.89px" style="font-family:'ArialMT', 'Arial', sans-serif;font-size:28.333px;fill:#737373;">25</text><text x="2100.98px" y="286.578px" style="font-family:'ArialMT', 'Arial', sans-serif;font-size:28.333px;fill:#737373;">29</text><text x="1933.62px" y="246.385px" style="font-family:'ArialMT', 'Arial', sans-serif;font-size:28.333px;fill:#737373;">28</text><text x="1763.73px" y="288.664px" style="font-family:'ArialMT', 'Arial', sans-serif;font-size:28.333px;fill:#737373;">27</text><text x="1594.03px" y="309.052px" style="font-family:'ArialMT', 'Arial', sans-serif;font-size:28.333px;fill:#737373;">26</text><text x="1594.88px" y="477.2px" style="font-family:'ArialMT', 'Arial', sans-serif;font-size:28.333px;fill:#737373;">31</text><text x="1764.35px" y="457.983px" style="font-family:'ArialMT', 'Arial', sans-serif;font-size:28.333px;fill:#737373;">32</text><text x="1930.9px" y="413.719px" style="font-family:'ArialMT', 'Arial', sans-serif;font-size:28.333px;fill:#737373;">33</text><text x="2099.89px" y="455.92px" style="font-family:'ArialMT', 'Arial', sans-serif;font-size:28.333px;fill:#737373;">34</text><text x="2268.24px" y="372.047px" style="font-family:'ArialMT', 'Arial', sans-serif;font-size:28.333px;fill:#737373;">30</text><text x="2270.51px" y="540.38px" style="font-family:'ArialMT', 'Arial', sans-serif;font-size:28.333px;fill:#737373;">35</text><text x="2102.05px" y="627.039px" style="font-family:'ArialMT', 'Arial', sans-serif;font-size:28.333px;fill:#737373;">40</text><text x="1932.83px" y="585.192px" style="font-family:'ArialMT', 'Arial', sans-serif;font-size:28.333px;fill:#737373;">39</text><g transform="matrix(0.966451,-0.256852,0.256852,0.966451,-78.5989,395.542)"><text x="1606.36px" y="704.301px" style="font-family:'ArialMT', 'Arial', sans-serif;font-size:28.333px;fill:#737373;">38</text></g><g transform="matrix(0.863962,-0.503558,0.503558,0.863962,-150.294,723.614)"><text x="1395.64px" y="845.626px" style="font-family:'ArialMT', 'Arial', sans-serif;font-size:28.333px;fill:#737373;">37</text></g><g transform="matrix(0.699795,-0.714344,0.714344,0.699795,-266.147,1031.19)"><text x="1225.33px" y="1037.9px" style="font-family:'ArialMT', 'Arial', sans-serif;font-size:28.333px;fill:#737373;">36</text></g><text x="122.014px" y="373.433px" style="font-family:'ArialMT', 'Arial', sans-serif;font-size:28.333px;fill:#737373;">6</text><text x="293.995px" y="287.372px" style="font-family:'ArialMT', 'Arial', sans-serif;font-size:28.333px;fill:#737373;">7</text><text x="463.41px" y="245.631px" style="font-family:'ArialMT', 'Arial', sans-serif;font-size:28.333px;fill:#737373;">8</text><text x="630.363px" y="286.691px" style="font-family:'ArialMT', 'Arial', sans-serif;font-size:28.333px;fill:#737373;">9</text><text x="800.039px" y="308.487px" style="font-family:'ArialMT', 'Arial', sans-serif;font-size:28.333px;fill:#737373;">10</text><text x="121.113px" y="539.609px" style="font-family:'ArialMT', 'Arial', sans-serif;font-size:28.333px;fill:#737373;">1<tspan x="134.768px " y="539.609px ">1</tspan></text><text x="292.688px" y="627.727px" style="font-family:'ArialMT', 'Arial', sans-serif;font-size:28.333px;fill:#737373;">16</text><text x="461.379px" y="585.945px" style="font-family:'ArialMT', 'Arial', sans-serif;font-size:28.333px;fill:#737373;">17</text><g transform="matrix(0.964149,0.265362,-0.265362,0.964149,130.774,-162.46)"><text x="798.165px" y="608.405px" style="font-family:'ArialMT', 'Arial', sans-serif;font-size:28.333px;fill:#737373;">18</text></g><g transform="matrix(0.868941,0.494917,-0.494917,0.868941,344.791,-392.606)"><text x="1045.22px" y="660.365px" style="font-family:'ArialMT', 'Arial', sans-serif;font-size:28.333px;fill:#737373;">19</text></g><g transform="matrix(0.71009,0.704111,-0.704111,0.71009,730.794,-640.102)"><text x="1274.25px" y="773.051px" style="font-family:'ArialMT', 'Arial', sans-serif;font-size:28.333px;fill:#737373;">20</text></g><text x="291.749px" y="457.186px" style="font-family:'ArialMT', 'Arial', sans-serif;font-size:28.333px;fill:#737373;">12</text><text x="463.718px" y="415.186px" style="font-family:'ArialMT', 'Arial', sans-serif;font-size:28.333px;fill:#737373;">13</text><text x="628.89px" y="457.051px" style="font-family:'ArialMT', 'Arial', sans-serif;font-size:28.333px;fill:#737373;">14</text><text x="798.159px" y="477.583px" style="font-family:'ArialMT', 'Arial', sans-serif;font-size:28.333px;fill:#737373;">15</text></svg>